<mxfile host="Electron" modified="2023-12-26T07:27:31.729Z" agent="Mozilla/5.0 (Macintosh; Intel Mac OS X 10_15_7) AppleWebKit/537.36 (KHTML, like Gecko) draw.io/21.4.0 Chrome/112.0.5615.204 Electron/24.5.1 Safari/537.36" etag="aX6C7_KXea2o8nsCGm4U" version="21.4.0" type="device" pages="5">
  <diagram name="Page-1" id="gyIbjIkaAnRUj1FW5GiL">
    <mxGraphModel dx="710" dy="473" grid="1" gridSize="10" guides="1" tooltips="1" connect="1" arrows="1" fold="1" page="1" pageScale="1" pageWidth="827" pageHeight="1169" math="0" shadow="0">
      <root>
        <mxCell id="0" />
        <mxCell id="1" parent="0" />
        <mxCell id="izo0bBDe98OdApoTN-t9-5" style="edgeStyle=orthogonalEdgeStyle;rounded=0;orthogonalLoop=1;jettySize=auto;html=1;" edge="1" parent="1" source="izo0bBDe98OdApoTN-t9-1" target="izo0bBDe98OdApoTN-t9-2">
          <mxGeometry relative="1" as="geometry" />
        </mxCell>
        <mxCell id="izo0bBDe98OdApoTN-t9-6" style="edgeStyle=orthogonalEdgeStyle;rounded=0;orthogonalLoop=1;jettySize=auto;html=1;" edge="1" parent="1" source="izo0bBDe98OdApoTN-t9-1" target="izo0bBDe98OdApoTN-t9-3">
          <mxGeometry relative="1" as="geometry" />
        </mxCell>
        <mxCell id="izo0bBDe98OdApoTN-t9-7" style="edgeStyle=orthogonalEdgeStyle;rounded=0;orthogonalLoop=1;jettySize=auto;html=1;" edge="1" parent="1" source="izo0bBDe98OdApoTN-t9-1" target="izo0bBDe98OdApoTN-t9-4">
          <mxGeometry relative="1" as="geometry" />
        </mxCell>
        <mxCell id="izo0bBDe98OdApoTN-t9-1" value="Storage" style="rounded=0;whiteSpace=wrap;html=1;fontStyle=1;fontSize=15;fillColor=#dae8fc;strokeColor=#6c8ebf;" vertex="1" parent="1">
          <mxGeometry x="355" y="60" width="120" height="60" as="geometry" />
        </mxCell>
        <mxCell id="izo0bBDe98OdApoTN-t9-2" value="Block Storage" style="rounded=0;whiteSpace=wrap;html=1;fontStyle=1;fontSize=15;fillColor=#fff2cc;strokeColor=#d6b656;" vertex="1" parent="1">
          <mxGeometry x="130" y="210" width="150" height="60" as="geometry" />
        </mxCell>
        <mxCell id="izo0bBDe98OdApoTN-t9-3" value="Object Storage" style="rounded=0;whiteSpace=wrap;html=1;fontStyle=1;fontSize=15;fillColor=#fff2cc;strokeColor=#d6b656;" vertex="1" parent="1">
          <mxGeometry x="340" y="210" width="150" height="60" as="geometry" />
        </mxCell>
        <mxCell id="izo0bBDe98OdApoTN-t9-4" value="File Storage" style="rounded=0;whiteSpace=wrap;html=1;fontStyle=1;fontSize=15;fillColor=#fff2cc;strokeColor=#d6b656;" vertex="1" parent="1">
          <mxGeometry x="540" y="210" width="150" height="60" as="geometry" />
        </mxCell>
        <mxCell id="izo0bBDe98OdApoTN-t9-8" value="Elastic Block Storage&lt;br&gt;(EBS)&lt;br&gt;&lt;div style=&quot;text-align: left;&quot;&gt;&lt;span style=&quot;background-color: initial; font-weight: normal;&quot;&gt;&lt;br&gt;&lt;/span&gt;&lt;/div&gt;&lt;div style=&quot;text-align: left;&quot;&gt;&lt;span style=&quot;background-color: initial; font-weight: normal;&quot;&gt;-&amp;nbsp; EC2 secondary storage&lt;/span&gt;&lt;/div&gt;&lt;div style=&quot;text-align: left;&quot;&gt;&lt;span style=&quot;background-color: initial; font-weight: normal;&quot;&gt;- data gets stored in blocks&lt;/span&gt;&lt;/div&gt;" style="text;html=1;strokeColor=none;fillColor=none;align=center;verticalAlign=middle;whiteSpace=wrap;rounded=0;fontStyle=1" vertex="1" parent="1">
          <mxGeometry x="130" y="275" width="150" height="85" as="geometry" />
        </mxCell>
        <mxCell id="izo0bBDe98OdApoTN-t9-9" value="Simple Storage Service&lt;br&gt;(S3)&lt;br&gt;&lt;br&gt;&lt;div style=&quot;text-align: left;&quot;&gt;&lt;span style=&quot;background-color: initial; font-weight: normal;&quot;&gt;- data gets stored as objects&lt;/span&gt;&lt;/div&gt;&lt;div style=&quot;text-align: left;&quot;&gt;&lt;span style=&quot;background-color: initial; font-weight: normal;&quot;&gt;- objects get stored in buckets&lt;/span&gt;&lt;/div&gt;" style="text;html=1;strokeColor=none;fillColor=none;align=center;verticalAlign=middle;whiteSpace=wrap;rounded=0;fontStyle=1" vertex="1" parent="1">
          <mxGeometry x="331" y="275" width="165" height="90" as="geometry" />
        </mxCell>
        <mxCell id="izo0bBDe98OdApoTN-t9-10" value="Elastic File Storage&amp;nbsp;&lt;br&gt;(EFS)&lt;br&gt;&lt;br&gt;&lt;div style=&quot;text-align: left;&quot;&gt;&lt;span style=&quot;font-weight: normal;&quot;&gt;- scaled version of NFS&lt;/span&gt;&lt;/div&gt;&lt;div style=&quot;text-align: left;&quot;&gt;&lt;span style=&quot;font-weight: normal;&quot;&gt;- huge data can be shared with millions of consumers&lt;/span&gt;&lt;/div&gt;&lt;div style=&quot;text-align: left;&quot;&gt;&lt;span style=&quot;font-weight: normal;&quot;&gt;- fastest shared storage&lt;/span&gt;&lt;/div&gt;" style="text;html=1;strokeColor=none;fillColor=none;align=center;verticalAlign=middle;whiteSpace=wrap;rounded=0;fontStyle=1" vertex="1" parent="1">
          <mxGeometry x="530" y="275" width="170" height="130" as="geometry" />
        </mxCell>
      </root>
    </mxGraphModel>
  </diagram>
  <diagram id="8CSNqVyfHgIJSMDbF2_5" name="Page-2">
    <mxGraphModel dx="857" dy="571" grid="1" gridSize="10" guides="1" tooltips="1" connect="1" arrows="1" fold="1" page="1" pageScale="1" pageWidth="827" pageHeight="1169" math="0" shadow="0">
      <root>
        <mxCell id="0" />
        <mxCell id="1" parent="0" />
        <mxCell id="9VcPnWIDpnslyA6fwYoD-1" value="" style="shape=trapezoid;perimeter=trapezoidPerimeter;whiteSpace=wrap;html=1;fixedSize=1;rotation=-180;" vertex="1" parent="1">
          <mxGeometry x="270" y="220" width="130" height="140" as="geometry" />
        </mxCell>
        <mxCell id="9VcPnWIDpnslyA6fwYoD-2" value="bucket" style="text;html=1;strokeColor=none;fillColor=none;align=center;verticalAlign=middle;whiteSpace=wrap;rounded=0;fontStyle=1;fontSize=15;" vertex="1" parent="1">
          <mxGeometry x="305" y="370" width="60" height="30" as="geometry" />
        </mxCell>
        <mxCell id="9VcPnWIDpnslyA6fwYoD-3" value="obj1" style="ellipse;whiteSpace=wrap;html=1;aspect=fixed;fillColor=#f8cecc;strokeColor=#b85450;" vertex="1" parent="1">
          <mxGeometry x="300" y="310" width="40" height="40" as="geometry" />
        </mxCell>
        <mxCell id="9VcPnWIDpnslyA6fwYoD-8" style="edgeStyle=orthogonalEdgeStyle;rounded=0;orthogonalLoop=1;jettySize=auto;html=1;entryX=0.06;entryY=0.38;entryDx=0;entryDy=0;entryPerimeter=0;" edge="1" parent="1" target="9VcPnWIDpnslyA6fwYoD-6">
          <mxGeometry relative="1" as="geometry">
            <mxPoint x="370" y="300" as="sourcePoint" />
            <Array as="points">
              <mxPoint x="370" y="301" />
              <mxPoint x="420" y="301" />
              <mxPoint x="420" y="269" />
            </Array>
          </mxGeometry>
        </mxCell>
        <mxCell id="9VcPnWIDpnslyA6fwYoD-9" style="edgeStyle=orthogonalEdgeStyle;rounded=0;orthogonalLoop=1;jettySize=auto;html=1;" edge="1" parent="1" source="9VcPnWIDpnslyA6fwYoD-4" target="9VcPnWIDpnslyA6fwYoD-7">
          <mxGeometry relative="1" as="geometry" />
        </mxCell>
        <mxCell id="9VcPnWIDpnslyA6fwYoD-4" value="obj2" style="ellipse;whiteSpace=wrap;html=1;aspect=fixed;fillColor=#f8cecc;strokeColor=#b85450;" vertex="1" parent="1">
          <mxGeometry x="340" y="280" width="40" height="40" as="geometry" />
        </mxCell>
        <mxCell id="9VcPnWIDpnslyA6fwYoD-5" value="obj3" style="ellipse;whiteSpace=wrap;html=1;aspect=fixed;fillColor=#f8cecc;strokeColor=#b85450;" vertex="1" parent="1">
          <mxGeometry x="290" y="260" width="40" height="40" as="geometry" />
        </mxCell>
        <mxCell id="9VcPnWIDpnslyA6fwYoD-6" value="file" style="ellipse;whiteSpace=wrap;html=1;aspect=fixed;" vertex="1" parent="1">
          <mxGeometry x="460" y="250" width="50" height="50" as="geometry" />
        </mxCell>
        <mxCell id="9VcPnWIDpnslyA6fwYoD-10" style="edgeStyle=orthogonalEdgeStyle;rounded=0;orthogonalLoop=1;jettySize=auto;html=1;entryX=0.998;entryY=0.352;entryDx=0;entryDy=0;entryPerimeter=0;" edge="1" parent="1" source="9VcPnWIDpnslyA6fwYoD-7" target="9VcPnWIDpnslyA6fwYoD-6">
          <mxGeometry relative="1" as="geometry">
            <Array as="points">
              <mxPoint x="530" y="345" />
              <mxPoint x="530" y="268" />
            </Array>
          </mxGeometry>
        </mxCell>
        <mxCell id="9VcPnWIDpnslyA6fwYoD-7" value="folder" style="ellipse;whiteSpace=wrap;html=1;aspect=fixed;" vertex="1" parent="1">
          <mxGeometry x="460" y="320" width="50" height="50" as="geometry" />
        </mxCell>
        <mxCell id="9VcPnWIDpnslyA6fwYoD-11" value="public" style="text;html=1;strokeColor=none;fillColor=none;align=center;verticalAlign=middle;whiteSpace=wrap;rounded=0;fontStyle=1;fontSize=15;" vertex="1" parent="1">
          <mxGeometry x="305" y="190" width="60" height="30" as="geometry" />
        </mxCell>
      </root>
    </mxGraphModel>
  </diagram>
  <diagram id="N2p7YzrJbrNAew8TrgJa" name="Page-3">
    <mxGraphModel dx="857" dy="571" grid="1" gridSize="10" guides="1" tooltips="1" connect="1" arrows="1" fold="1" page="1" pageScale="1" pageWidth="827" pageHeight="1169" math="0" shadow="0">
      <root>
        <mxCell id="0" />
        <mxCell id="1" parent="0" />
        <mxCell id="aWGax9P5CaT0MgJ6zS5A-4" style="edgeStyle=orthogonalEdgeStyle;rounded=0;orthogonalLoop=1;jettySize=auto;html=1;entryX=0.417;entryY=0.006;entryDx=0;entryDy=0;entryPerimeter=0;" edge="1" parent="1" source="aWGax9P5CaT0MgJ6zS5A-1" target="aWGax9P5CaT0MgJ6zS5A-2">
          <mxGeometry relative="1" as="geometry" />
        </mxCell>
        <mxCell id="aWGax9P5CaT0MgJ6zS5A-5" style="edgeStyle=orthogonalEdgeStyle;rounded=0;orthogonalLoop=1;jettySize=auto;html=1;" edge="1" parent="1" source="aWGax9P5CaT0MgJ6zS5A-1" target="aWGax9P5CaT0MgJ6zS5A-3">
          <mxGeometry relative="1" as="geometry" />
        </mxCell>
        <mxCell id="aWGax9P5CaT0MgJ6zS5A-1" value="multi-tasking" style="rounded=0;whiteSpace=wrap;html=1;fontStyle=1;fontSize=15;" vertex="1" parent="1">
          <mxGeometry x="280" y="100" width="170" height="60" as="geometry" />
        </mxCell>
        <mxCell id="aWGax9P5CaT0MgJ6zS5A-2" value="multi-threading" style="rounded=0;whiteSpace=wrap;html=1;fontStyle=1;fontSize=15;" vertex="1" parent="1">
          <mxGeometry x="110" y="250" width="170" height="60" as="geometry" />
        </mxCell>
        <mxCell id="aWGax9P5CaT0MgJ6zS5A-3" value="multi-processing" style="rounded=0;whiteSpace=wrap;html=1;fontStyle=1;fontSize=15;" vertex="1" parent="1">
          <mxGeometry x="450" y="250" width="170" height="60" as="geometry" />
        </mxCell>
      </root>
    </mxGraphModel>
  </diagram>
  <diagram id="axwjte-4bFNigzDR0AJD" name="Page-4">
    <mxGraphModel dx="994" dy="662" grid="1" gridSize="10" guides="1" tooltips="1" connect="1" arrows="1" fold="1" page="1" pageScale="1" pageWidth="827" pageHeight="1169" math="0" shadow="0">
      <root>
        <mxCell id="0" />
        <mxCell id="1" parent="0" />
        <mxCell id="jYp-IlRev_AmYHc_TWO9-8" value="" style="rounded=1;arcSize=10;dashed=1;strokeColor=#ff0000;fillColor=none;gradientColor=none;dashPattern=8 4;strokeWidth=2;" vertex="1" parent="1">
          <mxGeometry x="565" y="650" width="140" height="110" as="geometry" />
        </mxCell>
        <mxCell id="jYp-IlRev_AmYHc_TWO9-3" value="" style="rounded=1;arcSize=10;dashed=1;strokeColor=#ff0000;fillColor=none;gradientColor=none;dashPattern=8 4;strokeWidth=2;" vertex="1" parent="1">
          <mxGeometry x="165" y="650" width="140" height="110" as="geometry" />
        </mxCell>
        <mxCell id="jYp-IlRev_AmYHc_TWO9-12" value="VPC" style="sketch=0;outlineConnect=0;gradientColor=none;html=1;whiteSpace=wrap;fontSize=12;fontStyle=0;shape=mxgraph.aws4.group;grIcon=mxgraph.aws4.group_vpc;strokeColor=#879196;fillColor=none;verticalAlign=top;align=left;spacingLeft=30;fontColor=#879196;dashed=0;" vertex="1" parent="1">
          <mxGeometry x="111" y="540" width="810" height="270" as="geometry" />
        </mxCell>
        <mxCell id="jYp-IlRev_AmYHc_TWO9-6" value="Subnet1 - Availability Zone" style="sketch=0;outlineConnect=0;gradientColor=none;html=1;whiteSpace=wrap;fontSize=12;fontStyle=0;shape=mxgraph.aws4.group;grIcon=mxgraph.aws4.group_subnet;strokeColor=#879196;fillColor=none;verticalAlign=top;align=left;spacingLeft=30;fontColor=#879196;dashed=0;" vertex="1" parent="1">
          <mxGeometry x="131" y="610" width="370" height="180" as="geometry" />
        </mxCell>
        <mxCell id="jYp-IlRev_AmYHc_TWO9-11" value="Subnet2 - Availability Zone" style="sketch=0;outlineConnect=0;gradientColor=none;html=1;whiteSpace=wrap;fontSize=12;fontStyle=0;shape=mxgraph.aws4.group;grIcon=mxgraph.aws4.group_subnet;strokeColor=#879196;fillColor=none;verticalAlign=top;align=left;spacingLeft=30;fontColor=#879196;dashed=0;" vertex="1" parent="1">
          <mxGeometry x="531" y="610" width="370" height="180" as="geometry" />
        </mxCell>
        <mxCell id="jYp-IlRev_AmYHc_TWO9-2" value="&lt;b&gt;EC2 instance&lt;/b&gt;" style="outlineConnect=0;dashed=0;verticalLabelPosition=bottom;verticalAlign=top;align=center;html=1;shape=mxgraph.aws3.ec2;fillColor=#F58534;gradientColor=none;" vertex="1" parent="1">
          <mxGeometry x="215" y="660.5" width="40" height="50" as="geometry" />
        </mxCell>
        <mxCell id="jYp-IlRev_AmYHc_TWO9-7" value="&lt;b&gt;EC2 instance&lt;/b&gt;" style="outlineConnect=0;dashed=0;verticalLabelPosition=bottom;verticalAlign=top;align=center;html=1;shape=mxgraph.aws3.ec2;fillColor=#F58534;gradientColor=none;" vertex="1" parent="1">
          <mxGeometry x="615" y="662.5" width="40" height="50" as="geometry" />
        </mxCell>
        <mxCell id="jYp-IlRev_AmYHc_TWO9-13" value="S3" style="outlineConnect=0;dashed=0;verticalLabelPosition=bottom;verticalAlign=top;align=center;html=1;shape=mxgraph.aws3.s3;fillColor=#E05243;gradientColor=none;fontStyle=1" vertex="1" parent="1">
          <mxGeometry x="371" y="658.5" width="60" height="73" as="geometry" />
        </mxCell>
        <mxCell id="jYp-IlRev_AmYHc_TWO9-14" value="S3" style="outlineConnect=0;dashed=0;verticalLabelPosition=bottom;verticalAlign=top;align=center;html=1;shape=mxgraph.aws3.s3;fillColor=#E05243;gradientColor=none;fontStyle=1" vertex="1" parent="1">
          <mxGeometry x="771" y="658.5" width="60" height="73" as="geometry" />
        </mxCell>
        <mxCell id="jYp-IlRev_AmYHc_TWO9-15" value="10.0.0.0 / 16" style="text;html=1;strokeColor=none;fillColor=none;align=left;verticalAlign=middle;whiteSpace=wrap;rounded=0;fontStyle=1;fontSize=19;" vertex="1" parent="1">
          <mxGeometry x="110" y="510" width="250" height="30" as="geometry" />
        </mxCell>
        <mxCell id="jYp-IlRev_AmYHc_TWO9-16" value="10.0.1.0 / 24" style="text;html=1;strokeColor=none;fillColor=none;align=left;verticalAlign=middle;whiteSpace=wrap;rounded=0;fontStyle=1;fontSize=14;" vertex="1" parent="1">
          <mxGeometry x="131" y="580" width="250" height="30" as="geometry" />
        </mxCell>
        <mxCell id="jYp-IlRev_AmYHc_TWO9-17" value="10.0.2.0 / 24" style="text;html=1;strokeColor=none;fillColor=none;align=right;verticalAlign=middle;whiteSpace=wrap;rounded=0;fontStyle=1;fontSize=14;" vertex="1" parent="1">
          <mxGeometry x="591" y="580" width="310" height="30" as="geometry" />
        </mxCell>
        <mxCell id="jYp-IlRev_AmYHc_TWO9-32" style="edgeStyle=orthogonalEdgeStyle;rounded=0;orthogonalLoop=1;jettySize=auto;html=1;" edge="1" parent="1" source="jYp-IlRev_AmYHc_TWO9-18" target="jYp-IlRev_AmYHc_TWO9-26">
          <mxGeometry relative="1" as="geometry" />
        </mxCell>
        <mxCell id="jYp-IlRev_AmYHc_TWO9-18" value="" style="outlineConnect=0;dashed=0;verticalLabelPosition=bottom;verticalAlign=top;align=center;html=1;shape=mxgraph.aws3.router;fillColor=#F58534;gradientColor=none;" vertex="1" parent="1">
          <mxGeometry x="494.25" y="590" width="43.5" height="40" as="geometry" />
        </mxCell>
        <mxCell id="jYp-IlRev_AmYHc_TWO9-19" value="10.0.1.10" style="text;html=1;strokeColor=none;fillColor=none;align=left;verticalAlign=middle;whiteSpace=wrap;rounded=0;fontStyle=1;fontSize=14;" vertex="1" parent="1">
          <mxGeometry x="205" y="725" width="60" height="30" as="geometry" />
        </mxCell>
        <mxCell id="jYp-IlRev_AmYHc_TWO9-20" value="10.0.2.20" style="text;html=1;strokeColor=none;fillColor=none;align=left;verticalAlign=middle;whiteSpace=wrap;rounded=0;fontStyle=1;fontSize=14;" vertex="1" parent="1">
          <mxGeometry x="605" y="727" width="60" height="30" as="geometry" />
        </mxCell>
        <mxCell id="jYp-IlRev_AmYHc_TWO9-23" value="internet" style="ellipse;shape=cloud;whiteSpace=wrap;html=1;fontStyle=1;fontSize=15;fillColor=#1ba1e2;fontColor=#ffffff;strokeColor=#006EAF;" vertex="1" parent="1">
          <mxGeometry x="455.99" y="390" width="120" height="80" as="geometry" />
        </mxCell>
        <mxCell id="jYp-IlRev_AmYHc_TWO9-27" style="edgeStyle=orthogonalEdgeStyle;rounded=0;orthogonalLoop=1;jettySize=auto;html=1;" edge="1" parent="1" source="jYp-IlRev_AmYHc_TWO9-26" target="jYp-IlRev_AmYHc_TWO9-23">
          <mxGeometry relative="1" as="geometry" />
        </mxCell>
        <mxCell id="jYp-IlRev_AmYHc_TWO9-26" value="" style="outlineConnect=0;dashed=0;verticalLabelPosition=bottom;verticalAlign=top;align=center;html=1;shape=mxgraph.aws3.internet_gateway;fillColor=#F58534;gradientColor=none;" vertex="1" parent="1">
          <mxGeometry x="495.62" y="520" width="40.75" height="41" as="geometry" />
        </mxCell>
        <mxCell id="jYp-IlRev_AmYHc_TWO9-29" value="10.0.2.20" style="rounded=0;whiteSpace=wrap;html=1;fillColor=#0050ef;fontColor=#ffffff;strokeColor=#001DBC;" vertex="1" parent="1">
          <mxGeometry x="701" y="685" width="70" height="20" as="geometry" />
        </mxCell>
        <mxCell id="jYp-IlRev_AmYHc_TWO9-31" value="google.com" style="rounded=0;whiteSpace=wrap;html=1;fillColor=#0050ef;fontColor=#ffffff;strokeColor=#001DBC;" vertex="1" parent="1">
          <mxGeometry x="810" y="470" width="70" height="20" as="geometry" />
        </mxCell>
        <mxCell id="jYp-IlRev_AmYHc_TWO9-34" style="edgeStyle=orthogonalEdgeStyle;rounded=0;orthogonalLoop=1;jettySize=auto;html=1;entryX=0.503;entryY=0.09;entryDx=0;entryDy=0;entryPerimeter=0;" edge="1" parent="1" source="jYp-IlRev_AmYHc_TWO9-33" target="jYp-IlRev_AmYHc_TWO9-23">
          <mxGeometry relative="1" as="geometry" />
        </mxCell>
        <mxCell id="jYp-IlRev_AmYHc_TWO9-33" value="Actor" style="shape=umlActor;verticalLabelPosition=bottom;verticalAlign=top;html=1;outlineConnect=0;" vertex="1" parent="1">
          <mxGeometry x="500.99" y="220" width="30" height="60" as="geometry" />
        </mxCell>
      </root>
    </mxGraphModel>
  </diagram>
  <diagram id="9viECODe1v76zGssDNn-" name="Page-5">
    <mxGraphModel dx="1242" dy="828" grid="1" gridSize="10" guides="1" tooltips="1" connect="1" arrows="1" fold="1" page="1" pageScale="1" pageWidth="827" pageHeight="1169" math="0" shadow="0">
      <root>
        <mxCell id="0" />
        <mxCell id="1" parent="0" />
      </root>
    </mxGraphModel>
  </diagram>
</mxfile>
